<svg xmlns="http://www.w3.org/2000/svg" viewBox="0 0 758.1 210.01"><defs><style>.cls-1{fill:#ffffff;}.cls-2{fill:#ffe5e5;}.cls-3{font-size:12px;font-family:MyriadPro-Regular, Myriad Pro;}</style></defs><title>Text2</title><g id="Layer_2" data-name="Layer 2"><g id="Layer_1-2" data-name="Layer 1"><path class="cls-1" d="M36.3,32.67,0,173.71,141.05,210l36.3-141Zm81.51,138L39.34,150.48,59.53,72,138,92.2Z"/><path class="cls-1" d="M93,0,56.67,141.05l141,36.3L234,36.3Zm81.51,138L96,117.81,116.2,39.34l78.47,20.19Z"/><polygon class="cls-2" points="117.81 170.67 121.16 157.65 152.45 165.7 148.96 179.28 117.81 170.67"/><polygon class="cls-2" points="117.81 170.67 121.16 157.65 152.45 165.7 148.96 179.28 117.81 170.67"/><polygon class="cls-2" points="70.17 88.59 73.6 75.58 104.89 83.64 101.31 97.19 70.17 88.59"/><text class="cls-3" transform="translate(273.98 72)"> </text><path class="cls-1" d="M363,87.45q0,30.1-26.27,37.94l31.84,44.19h-26.1l-29.06-40.89h-27v40.89H265.86V48H311.1q27.84,0,39.85,9.39T363,87.45Zm-27.32,17.23q6.27-5.39,6.27-17.31T335.46,71q-6.43-4.44-23-4.44h-26.1v43.5H312Q329.37,110.07,335.63,104.68Z"/><path class="cls-1" d="M461.09,157.14Q447.17,171,426.29,171t-34.8-13.83q-13.92-13.83-13.92-33.84t13.92-33.84q13.92-13.84,34.8-13.84t34.8,13.84Q475,103.29,475,123.3T461.09,157.14Zm-55.77-12q8.26,8.43,21,8.43t21-8.43q8.26-8.44,8.27-21.84t-8.27-21.84Q439,93,426.29,93t-21,8.44q-8.26,8.45-8.26,21.84T405.32,145.14Z"/><path class="cls-1" d="M544.43,169.58h-23L472.57,48h23L533,138.78,570.36,48h23Z"/><path class="cls-1" d="M690.59,131.82H618a21.09,21.09,0,0,0,9.23,16.27,32.34,32.34,0,0,0,19.48,6.18q17.4,0,26.45-11l11.14,12.18q-15,15.48-39,15.48-19.49,0-33.14-13t-13.66-34.8q0-21.83,13.92-34.71a46.73,46.73,0,0,1,32.8-12.88q18.87,0,32.1,11.4t13.22,31.41ZM618,116.51H671.1q0-11.66-7.3-17.92t-18-6.26a30.81,30.81,0,0,0-19.23,6.52Q618,105.38,618,116.51Z"/><path class="cls-1" d="M757.06,95.28q-14.44,0-21.75,9.4T728,129.91v39.67H708.51V77H728V95.63a40.43,40.43,0,0,1,12.79-14.27,30.85,30.85,0,0,1,17.14-5.74l.17,19.66Z"/></g></g></svg>