<svg xmlns="http://www.w3.org/2000/svg" viewBox="0 0 234.01 210.01"><defs><style>.cls-1{fill:#e2231a;}.cls-2{fill:#c61a1a;}</style></defs><title>Asset 1</title><g id="Layer_2" data-name="Layer 2"><g id="Layer_1-2" data-name="Layer 1"><path class="cls-1" d="M36.3,32.67,0,173.71,141.05,210l36.3-141Zm81.51,138L39.34,150.48,59.53,72,138,92.2Z"/><path class="cls-1" d="M93,0,56.67,141.05l141,36.3L234,36.3Zm81.51,138L96,117.81,116.2,39.34l78.47,20.19Z"/><polygon class="cls-2" points="117.81 170.67 121.16 157.65 152.45 165.7 148.96 179.28 117.81 170.67"/><polygon class="cls-2" points="117.81 170.67 121.16 157.65 152.45 165.7 148.96 179.28 117.81 170.67"/><polygon class="cls-2" points="70.17 88.59 73.6 75.58 104.89 83.64 101.31 97.19 70.17 88.59"/></g></g></svg>